<svg version="1.2" xmlns="http://www.w3.org/2000/svg" viewBox="0 0 2056 479" width="2056" height="479"><style>.a{fill:#40b4e5}.b{fill:#5b2d82}</style><path fill-rule="evenodd" class="a" d="m186.2 224.2h-150.5v0.9c4.2 32.4 28.5 56.7 56.7 57.1 17.4-0.9 35.4-8.1 47.7-20.5l30.7 18.4c-7.7 8.5-16.2 15.7-26 21.7-14.9 9-33.2 13.7-51.6 14.5-25.6 0-49-10.7-66.1-29.8-15.3-16.7-24.7-38-26.4-61.4-0.4-3-0.4-6-0.4-9q0-11.5 2.5-23c3.9-17.9 12.4-34.1 24.3-47.3 17.1-18.8 41-29.5 66.1-29.5 25.6 0 49.1 10.7 66.5 29.5 12 13.2 20.9 29.4 24.3 47.3 3 17.5 2.6 27.3 2.2 31.1zm-38.4-30.7l-0.4-0.8c-8.6-25.2-30.3-42.3-54.2-42.3-23.4 0-45.2 17.1-54.1 42.3l-0.5 0.8z"/><path fill-rule="evenodd" class="a" d="m381 117.6h36.7v195.3h-36.7v-22.6c-18.3 15.3-41.3 26.9-65.6 26.9-27.3 0-52.9-10.3-72.5-29.5-19.2-19.6-29.9-45.2-29.9-72.4 0-27.3 10.7-52.9 29.9-72.5 19.6-19.2 45.2-29.4 72.5-29.4 24.3 0 47.3 11.5 65.6 26.8zm0 97.7c0-36.3-29.4-66.1-65.6-66.1-36.3 0-65.7 29.8-65.7 66.1 0 36.2 29.4 66 65.7 66 36.2 0 65.6-29.8 65.6-66z"/><path class="a" d="m605.7 255.3c0 11.1-3 21.8-9.4 30.7-5.9 9-14.5 15.8-26 21.4-10.2 4.6-22.6 7.2-34.9 7.2-6.9 0-13.3-0.8-20.1-2.1-21.3-4.3-41.3-13.7-58.4-28.2l23-25.1c22.6 19.2 41.8 23 53.8 23 8.1 0 15.7-1.7 22.6-4.7 5.5-2.5 15.3-8.9 15.3-22.2 0-13.2-11.5-21.3-37.9-26-1.3-0.4-33.7-6.4-45.7-13.2-17.9-10.2-27.3-26-27.3-45.6 0-10.7 3.5-20.9 9.4-29.9 5.6-7.6 13.2-13.6 24.3-18.7 10.3-4.7 21.3-7.3 33.7-7.3 4.7 0 9.8 0.5 14.5 0.9 18.8 3 37.1 11.1 52.5 23.4l-21.4 24.8c-19.2-15-35.8-17.1-43.9-17.1-7.7 0-14.9 1.3-20.9 4.3-8.5 4.2-14 11.9-14 19.6 0 12.8 10.2 19.6 36.2 25.1 0.4 0 35.4 7.7 45.2 13.3 11.5 5.9 15.8 10.6 20.5 16.6 5.9 8.5 8.9 18.8 8.9 29.8z"/><path class="a" d="m702.5 424.6h-39.7l45.7-111.7-79.3-195.3h39.6l59.3 146.7 59.2-146.7h39.7z"/><path fill-rule="evenodd" class="a" d="m1060.2 215.3c0 27.2-10.6 52.8-30.3 72.4-19.1 19.2-44.7 29.5-72 29.5-24.3 0-47.3-11.6-65.7-26.9v134.3h-36.6v-307h36.6v22.6c18.4-15.3 41.4-26.8 65.7-26.8 27.3 0 52.9 10.2 72 29.4 19.7 19.6 30.3 45.2 30.3 72.5zm-36.6 0c0-36.3-29.5-66.1-65.7-66.1-36.3 0-65.7 29.8-65.7 66.1 0 36.2 29.4 66 65.7 66 36.2 0 65.7-29.8 65.7-66z"/><path fill-rule="evenodd" class="a" d="m1255.5 117.6h36.7v195.3h-36.7v-22.6c-18.3 15.3-41.4 26.9-65.7 26.9-27.3 0-52.8-10.3-72.4-29.5-19.2-19.6-29.9-45.2-29.9-72.4 0-27.3 10.7-52.9 29.9-72.5 19.6-19.2 45.1-29.4 72.4-29.4 24.3 0 47.4 11.5 65.7 26.8zm0 97.7c0-36.3-29.4-66.1-65.7-66.1-36.2 0-65.6 29.8-65.6 66.1 0 36.2 29.4 66 65.6 66 36.3 0 65.7-29.8 65.7-66z"/><path class="a" d="m1382.1 137.7c12.4-13.7 48.6-24.3 71.2-24.3l-8.9 36.6c-34.1 0-62.3 26-62.3 58.9v104h-36.6v-195.3h36.6z"/><path class="a" d="m1674.6 312.9h-46.5l-71.6-98.9-33.7 31.5v67.4h-36.7v-313h36.7v196.6l84.9-78.9h52.4l-75.9 70.8 66.3 94.7q2.6 3.6 5.4 7.1z"/><path class="a" d="m1806.2 400.7c-83.2 0-159.6-45.4-199.6-118.5l31.3-17.1c33.7 61.7 98.2 100 168.3 100 70.4 0 134.9-38.5 168.6-100.3l31.3 17c-39.9 73.3-116.5 118.9-199.9 118.9z"/><path fill-rule="evenodd" class="b" d="m1784.3 472.3l-11-0.9-2.4 4.8-9.9-0.8 15.2-27.9 9.6 0.8 10.1 30.1-10.1-0.8zm-2.1-7.3l-2.1-7.6-3.5 7.1z"/><path class="b" d="m1819.2 448.8l9.8-0.6 1.9 29-9.8 0.6z"/><path fill-rule="evenodd" class="b" d="m1869.6 464.2l-2.6 0.6 1.5 7.1-9.6 2.1-6.1-28.5 13.7-2.9q3.9-0.9 7.2-0.2 3.2 0.7 5.3 2.8 2.1 2.1 2.8 5.3 0.6 3.1-0.3 5.7-0.9 2.5-3.2 4.4l7.9 7.5-10.3 2.2zm1.1-13.8q-1.2-0.7-3.2-0.3l-3.4 0.8 1.4 6.6 3.5-0.7q1.9-0.4 2.7-1.5 0.8-1.1 0.5-2.7-0.4-1.6-1.5-2.2z"/><path fill-rule="evenodd" class="b" d="m1920.9 426.3q3.3 0.1 5.7 1.8 2.5 1.7 3.7 4.8 1.3 3 0.7 6-0.5 2.9-2.8 5.3-2.2 2.3-6 3.9l-3.9 1.6 2.8 6.6-9.1 3.7-11.1-26.9 13-5.3q3.7-1.6 7-1.5zm0.3 13q0.6-1.2 0-2.7-0.6-1.5-1.9-1.9-1.3-0.5-3.1 0.3l-3.3 1.4 2.6 6.3 3.3-1.4q1.8-0.8 2.4-2z"/><path fill-rule="evenodd" class="b" d="m1966.9 431.9q-4.2 0.4-7.8-1.3-3.7-1.7-6.1-5.4-2.4-3.6-2.6-7.7-0.1-4.1 2-7.7 2-3.7 5.9-6.3 4-2.6 8.2-3 4.2-0.4 7.8 1.3 3.7 1.7 6.1 5.4 2.4 3.6 2.5 7.7 0.2 4-1.9 7.7-2 3.7-5.9 6.3-4 2.6-8.2 3zm6.1-12.2q0.7-1.5 0.5-3.4-0.1-1.9-1.4-3.7-1.2-1.8-2.8-2.7-1.6-0.9-3.4-0.9-1.7 0.1-3.2 1.1-1.5 1-2.3 2.6-0.7 1.5-0.5 3.4 0.1 1.8 1.3 3.7 1.3 1.8 2.9 2.7 1.6 0.9 3.3 0.8 1.8 0 3.3-1 1.5-1 2.3-2.6z"/><path fill-rule="evenodd" class="b" d="m2013.7 387.5l-1.9 1.8 5.1 5.2-6.9 6.9-20.6-20.6 10-9.9q2.8-2.8 5.9-4 3.1-1.1 6-0.5 2.9 0.6 5.2 3 2.2 2.2 2.9 4.8 0.6 2.7-0.3 5.5l10.6 2.1-7.4 7.4zm-6.6-12.2q-1.3 0-2.8 1.4l-2.5 2.6 4.8 4.8 2.5-2.5q1.5-1.4 1.5-2.8 0.1-1.3-1-2.5-1.2-1.1-2.5-1z"/><path class="b" d="m2032.4 343.5l-4.7 7.1-6.3-4.3 15-22.2 6.3 4.3-4.8 7 17.8 12.1-5.5 8.1z"/><path fill-rule="evenodd" class="b" d="m1933 282.6h-32c-3.7 11.4-14.4 19.7-27 19.7-12.7 0-23.3-8.3-27.1-19.7h-83.6c-3.3 12.2-14.4 21.3-27.6 21.3-12.6 0-23.3-8.4-27-19.8h-27.7v-25.4c0-38.3 30.6-52.5 50.5-55.5 7.6-13.8 31.6-52.4 58.3-53.8 19.7-1.1 22.7-1 30.7-0.6 6.1 0.2 15.4 0.6 38.5 0.6 47.1 0 68.9 43.3 73.8 66.2l0.2 1.9zm-74-115.5c-6 0-11 0-15.3 0v35.5h65.7c-7.3-15.3-22.3-35.5-50.4-35.5zm-106.4 35.5h73.3v-35.9c-2.4 0-4.4-0.1-6.1-0.2-7.4-0.3-10.2-0.4-29 0.6-12.2 0.7-27.6 18.8-38.2 35.5zm-6.1 72.6c0-6-4.8-10.8-10.8-10.8-5.9 0-10.8 4.8-10.8 10.8 0 6 4.9 10.8 10.8 10.8 6 0 10.8-4.8 10.8-10.8zm138.3-1.5c0-6-4.9-10.8-10.8-10.8-6 0-10.8 4.8-10.8 10.8 0 5.9 4.8 10.8 10.8 10.8 5.9 0 10.8-4.9 10.8-10.8zm30.4-8.9v-44.4h-177.8c-4.6 0.3-38.6 4-38.6 38.3v7.6h9.9c3.7-11.4 14.4-19.7 27-19.7 12.1 0 22.4 7.5 26.6 18.2h84.6c3.8-11.4 14.4-19.7 27.1-19.7 12.6 0 23.3 8.3 27 19.7z"/></svg>